<svg width="25" height="23" viewBox="0 0 25 23" fill="none" xmlns="http://www.w3.org/2000/svg">
<path d="M22.0665 8.62496H17.3406L13.0192 2.33829C12.8317 2.06996 12.516 1.93579 12.2003 1.93579C11.8846 1.93579 11.5688 2.06996 11.3814 2.34787L7.05997 8.62496H2.33404C1.79139 8.62496 1.34741 9.05621 1.34741 9.58329C1.34741 9.66954 1.35728 9.75579 1.38688 9.84204L3.8929 18.7258C4.11983 19.5308 4.87953 20.125 5.78722 20.125H18.6133C19.521 20.125 20.2807 19.5308 20.5175 18.7258L23.0235 9.84204L23.0531 9.58329C23.0531 9.05621 22.6092 8.62496 22.0665 8.62496ZM12.2003 4.59996L14.9628 8.62496H9.43773L12.2003 4.59996ZM18.6133 18.2083L5.79709 18.2179L3.62651 10.5416H20.7839L18.6133 18.2083ZM12.2003 12.4583C11.115 12.4583 10.227 13.3208 10.227 14.375C10.227 15.4291 11.115 16.2916 12.2003 16.2916C13.2856 16.2916 14.1735 15.4291 14.1735 14.375C14.1735 13.3208 13.2856 12.4583 12.2003 12.4583Z" fill="black"/>
</svg>
