<svg width="24" height="23" viewBox="0 0 24 23" fill="none" xmlns="http://www.w3.org/2000/svg">
<path d="M16.1734 2.875C14.5059 2.875 12.9055 3.65125 11.8609 4.87792C10.8163 3.65125 9.21592 2.875 7.54842 2.875C4.59676 2.875 2.27759 5.19417 2.27759 8.14583C2.27759 11.7683 5.53592 14.72 10.4713 19.205L11.8609 20.4604L13.2505 19.1954C18.1859 14.72 21.4443 11.7683 21.4443 8.14583C21.4443 5.19417 19.1251 2.875 16.1734 2.875ZM11.9568 17.7771L11.8609 17.8729L11.7651 17.7771C7.20342 13.6467 4.19425 10.9154 4.19425 8.14583C4.19425 6.22917 5.63176 4.79167 7.54842 4.79167C9.02426 4.79167 10.4618 5.74042 10.9697 7.05333H12.7618C13.2601 5.74042 14.6976 4.79167 16.1734 4.79167C18.0901 4.79167 19.5276 6.22917 19.5276 8.14583C19.5276 10.9154 16.5184 13.6467 11.9568 17.7771Z" fill="black"/>
</svg>
