<svg width="24" height="23" viewBox="0 0 24 23" fill="none" xmlns="http://www.w3.org/2000/svg">
<path d="M15.2928 13.4167H14.5133L14.2371 13.1579C15.204 12.0654 15.7861 10.6471 15.7861 9.10417C15.7861 5.66375 12.915 2.875 9.37302 2.875C5.83104 2.875 2.95996 5.66375 2.95996 9.10417C2.95996 12.5446 5.83104 15.3333 9.37302 15.3333C10.9615 15.3333 12.4217 14.7679 13.5464 13.8287L13.8128 14.0971V14.8542L18.7459 19.6362L20.216 18.2083L15.2928 13.4167ZM9.37302 13.4167C6.91632 13.4167 4.93321 11.4904 4.93321 9.10417C4.93321 6.71792 6.91632 4.79167 9.37302 4.79167C11.8297 4.79167 13.8128 6.71792 13.8128 9.10417C13.8128 11.4904 11.8297 13.4167 9.37302 13.4167Z" fill="black"/>
</svg>
