<svg width="25" height="23" viewBox="0 0 25 23" fill="none" xmlns="http://www.w3.org/2000/svg">
<path d="M12.2004 5.75004C13.2857 5.75004 14.1736 6.61254 14.1736 7.66671C14.1736 8.72087 13.2857 9.58337 12.2004 9.58337C11.1151 9.58337 10.2271 8.72087 10.2271 7.66671C10.2271 6.61254 11.1151 5.75004 12.2004 5.75004ZM12.2004 15.3334C14.8643 15.3334 17.9228 16.5696 18.1201 17.25H6.28062C6.50754 16.56 9.54635 15.3334 12.2004 15.3334ZM12.2004 3.83337C10.0199 3.83337 8.25387 5.54879 8.25387 7.66671C8.25387 9.78462 10.0199 11.5 12.2004 11.5C14.3808 11.5 16.1469 9.78462 16.1469 7.66671C16.1469 5.54879 14.3808 3.83337 12.2004 3.83337ZM12.2004 13.4167C9.56608 13.4167 4.30737 14.7009 4.30737 17.25V19.1667H20.0934V17.25C20.0934 14.7009 14.8347 13.4167 12.2004 13.4167Z" fill="black"/>
</svg>
